StickNoBills-latin-0.ufo
<glyph name="parenright" format="1">
  <advance width="220"/>
  <unicode hex="0029"/>
  <outline>
    <contour>
      <point x="39.998" y="-9" type="curve"/>
      <point x="39.998" y="14" type="line"/>
      <point x="78.3154" y="38.085"/>
      <point x="139.998" y="68.1797"/>
      <point x="139.998" y="208" type="curve" smooth="yes"/>
      <point x="139.998" y="521" type="line" smooth="yes"/>
      <point x="139.998" y="632"/>
      <point x="78.998" y="663"/>
      <point x="39.998" y="686" type="curve"/>
      <point x="39.998" y="709" type="line"/>
      <point x="147.998" y="669"/>
      <point x="180" y="601"/>
      <point x="180" y="510" type="curve" smooth="yes"/>
      <point x="180" y="196" type="line" smooth="yes"/>
      <point x="179.936" y="167.608"/>
      <point x="176.446" y="47.5283"/>
    </contour>
  </outline>
</glyph>
<glyph name="asterisk" format="1">
  <advance width="355"/>
  <unicode hex="002A"/>
  <outline>
    <contour>
      <point x="42" y="705" type="line"/>
      <point x="65" y="737" type="line"/>
      <point x="157" y="679" type="line"/>
      <point x="157" y="785" type="line"/>
      <point x="197" y="785" type="line"/>
      <point x="197" y="674" type="line"/>
      <point x="293" y="737" type="line"/>
      <point x="315" y="705" type="line"/>
      <point x="207" y="633" type="line"/>
      <point x="315" y="559" type="line"/>
      <point x="292" y="527" type="line"/>
      <point x="197" y="595" type="line"/>
      <point x="197" y="478" type="line"/>
      <point x="157" y="478" type="line"/>
      <point x="157" y="595" type="line"/>
      <point x="62" y="531" type="line"/>
      <point x="40" y="563" type="line"/>
      <point x="149" y="634" type="line"/>
    </contour>
  </outline>
</glyph>
<glyph name="two" format="1">
  <advance width="510"/>
  <unicode hex="0032"/>
  <outline>
    <contour>
      <point x="40.9443" y="520" type="line"/>
      <point x="49.9443" y="604"/>
      <point x="110.944" y="691"/>
      <point x="216.944" y="700" type="curve"/>
      <point x="216.944" y="662" type="line" smooth="yes"/>
      <point x="216.944" y="662"/>
      <point x="101.944" y="659"/>
      <point x="77.9443" y="512" type="curve"/>
    </contour>
    <contour>
      <point x="59.9443" y="0" type="line"/>
      <point x="59.9443" y="38" type="line"/>
      <point x="463.944" y="38" type="line"/>
      <point x="463.944" y="0" type="line"/>
    </contour>
    <contour>
      <point x="59.9443" y="80" type="line"/>
      <point x="59.9443" y="257"/>
      <point x="267.944" y="328"/>
      <point x="304.944" y="346" type="curve" smooth="yes"/>
      <point x="360.944" y="373"/>
      <point x="429.944" y="408"/>
      <point x="429.944" y="494" type="curve" smooth="yes"/>
      <point x="429.944" y="579"/>
      <point x="397.944" y="662"/>
      <point x="261.944" y="662" type="curve"/>
      <point x="261.944" y="700" type="line"/>
      <point x="419.944" y="700"/>
      <point x="471.944" y="599"/>
      <point x="469.944" y="494" type="curve" smooth="yes"/>
      <point x="467.944" y="410"/>
      <point x="422.944" y="364"/>
      <point x="354.944" y="329" type="curve" smooth="yes"/>
      <point x="280.944" y="291"/>
      <point x="99.9443" y="231"/>
      <point x="99.9443" y="80" type="curve"/>
    </contour>
  </outline>
</glyph>
<glyph name="three" format="1">
  <advance width="509"/>
  <unicode hex="0033"/>
  <outline>
    <contour>
      <point x="272" y="-4" type="curve"/>
      <point x="272" y="34" type="line"/>
      <point x="365.031" y="34"/>
      <point x="429.267" y="86.9336"/>
      <point x="429.267" y="187.687" type="curve" smooth="yes"/>
      <point x="429.267" y="248.063"/>
      <point x="406.246" y="330"/>
      <point x="267" y="330" type="curve"/>
      <point x="267" y="366" type="line"/>
      <point x="406.246" y="366"/>
      <point x="429.267" y="447.936"/>
      <point x="429.267" y="508.313" type="curve" smooth="yes"/>
      <point x="429.267" y="609.067"/>
      <point x="365.031" y="662"/>
      <point x="272" y="662" type="curve"/>
      <point x="272" y="700" type="line"/>
      <point x="402.19" y="699.8"/>
      <point x="468.515" y="614.535"/>
      <point x="468.515" y="510.524" type="curve" smooth="yes"/>
      <point x="468.515" y="444.729"/>
      <point x="451" y="390"/>
      <point x="388.722" y="348" type="curve"/>
      <point x="451" y="305"/>
      <point x="468.515" y="251.271"/>
      <point x="468.515" y="185.476" type="curve" smooth="yes"/>
      <point x="468.515" y="81.4648"/>
      <point x="402.19" y="-3.7998"/>
    </contour>
    <contour>
      <point x="41" y="176" type="curve"/>
      <point x="78" y="184" type="line"/>
      <point x="102" y="37"/>
      <point x="217" y="34"/>
      <point x="217" y="34" type="curve"/>
      <point x="217" y="-4" type="line"/>
      <point x="111" y="5"/>
      <point x="50" y="92"/>
    </contour>
    <contour>
      <point x="40.9443" y="520" type="line"/>
      <point x="49.9443" y="604"/>
      <point x="110.944" y="691"/>
      <point x="216.944" y="700" type="curve"/>
      <point x="216.944" y="662" type="line"/>
      <point x="216.944" y="662"/>
      <point x="101.944" y="659"/>
      <point x="77.9443" y="512" type="curve"/>
    </contour>
  </outline>
</glyph>
<glyph name="question" format="1">
  <advance width="480"/>
  <unicode hex="003F"/>
  <outline>
    <contour>
      <point x="40" y="611" type="line"/>
      <point x="70" y="649"/>
      <point x="120" y="703"/>
      <point x="228" y="703" type="curve" smooth="yes"/>
      <point x="356" y="703"/>
      <point x="436" y="620"/>
      <point x="440" y="491" type="curve"/>
      <point x="440" y="293"/>
      <point x="225" y="276"/>
      <point x="225" y="276" type="curve"/>
      <point x="225" y="71" type="line"/>
      <point x="187" y="71" type="line"/>
      <point x="187" y="316" type="line"/>
      <point x="304" y="318"/>
      <point x="402" y="370"/>
      <point x="402" y="491" type="curve" smooth="yes"/>
      <point x="402" y="587"/>
      <point x="337" y="663"/>
      <point x="228" y="663" type="curve" smooth="yes"/>
      <point x="139" y="663"/>
      <point x="88" y="611"/>
      <point x="67" y="583" type="curve"/>
    </contour>
    <contour>
      <point x="181" y="4" type="curve" smooth="yes"/>
      <point x="181" y="18"/>
      <point x="193" y="30"/>
      <point x="207" y="30" type="curve" smooth="yes"/>
      <point x="221" y="30"/>
      <point x="233" y="18"/>
      <point x="233" y="4" type="curve" smooth="yes"/>
      <point x="233" y="-10"/>
      <point x="221" y="-22"/>
      <point x="207" y="-22" type="curve" smooth="yes"/>
      <point x="193" y="-22"/>
      <point x="181" y="-10"/>
    </contour>
  </outline>
</glyph>
<glyph name="A" format="1">
  <advance width="429"/>
  <unicode hex="0041"/>
  <outline>
    <contour>
      <point x="30" y="0" type="line"/>
      <point x="167" y="599" type="line"/>
      <point x="184" y="599" type="line"/>
      <point x="194" y="554" type="line"/>
      <point x="70" y="0" type="line"/>
    </contour>
    <contour>
      <point x="144" y="135" type="line"/>
      <point x="152" y="173" type="line"/>
      <point x="322" y="173" type="line"/>
      <point x="207" y="699" type="line"/>
      <point x="247" y="699" type="line"/>
      <point x="399" y="0" type="line"/>
      <point x="359" y="0" type="line"/>
      <point x="331" y="135" type="line"/>
    </contour>
  </outline>
</glyph>
<glyph name="D" format="1">
  <advance width="472"/>
  <unicode hex="0044"/>
  <outline>
    <contour>
      <point x="40" y="0" type="line"/>
      <point x="40" y="700" type="line"/>
      <point x="80" y="700" type="line"/>
      <point x="80" y="0" type="line"/>
    </contour>
    <contour>
      <point x="125" y="0" type="curve"/>
      <point x="125" y="38" type="line"/>
      <point x="268" y="38"/>
      <point x="392" y="41"/>
      <point x="392" y="197" type="curve" smooth="yes"/>
      <point x="392" y="503" type="line"/>
      <point x="392" y="669"/>
      <point x="261" y="662"/>
      <point x="125" y="662" type="curve"/>
      <point x="125" y="700" type="line"/>
      <point x="279" y="700"/>
      <point x="432" y="706"/>
      <point x="432" y="503" type="curve"/>
      <point x="432" y="197" type="line"/>
      <point x="432" y="0"/>
      <point x="285" y="0"/>
    </contour>
  </outline>
</glyph>
<glyph name="O" format="1">
  <advance width="528"/>
  <unicode hex="004F"/>
  <outline>
    <contour>
      <point x="40" y="195" type="curve" smooth="yes"/>
      <point x="40" y="524" type="line" smooth="yes"/>
      <point x="40" y="584"/>
      <point x="105" y="705"/>
      <point x="237" y="705" type="curve"/>
      <point x="237" y="666" type="line"/>
      <point x="139" y="666"/>
      <point x="80" y="566"/>
      <point x="80" y="508" type="curve" smooth="yes"/>
      <point x="80" y="195" type="line" smooth="yes"/>
      <point x="80" y="93"/>
      <point x="182" y="34"/>
      <point x="236" y="34" type="curve"/>
      <point x="236" y="-5" type="line"/>
      <point x="176" y="-5"/>
      <point x="40" y="51"/>
    </contour>
    <contour>
      <point x="291" y="-5" type="curve"/>
      <point x="291" y="34" type="line"/>
      <point x="347" y="34"/>
      <point x="448" y="90"/>
      <point x="448" y="195" type="curve" smooth="yes"/>
      <point x="448" y="508" type="line" smooth="yes"/>
      <point x="448" y="571"/>
      <point x="390" y="666"/>
      <point x="291" y="666" type="curve"/>
      <point x="291" y="705" type="line"/>
      <point x="422" y="705"/>
      <point x="488" y="583"/>
      <point x="488" y="524" type="curve" smooth="yes"/>
      <point x="488" y="195" type="line" smooth="yes"/>
      <point x="488" y="51"/>
      <point x="351" y="-5"/>
    </contour>
  </outline>
</glyph>
<glyph name="Q" format="1">
  <advance width="528"/>
  <unicode hex="0051"/>
  <outline>
    <contour>
      <point x="40" y="195" type="curve" smooth="yes"/>
      <point x="40" y="524" type="line" smooth="yes"/>
      <point x="40" y="584"/>
      <point x="105" y="706"/>
      <point x="241" y="705" type="curve"/>
      <point x="241" y="667" type="line"/>
      <point x="139" y="667"/>
      <point x="80" y="574"/>
      <point x="80" y="508" type="curve" smooth="yes"/>
      <point x="80" y="195" type="line" smooth="yes"/>
      <point x="80" y="64"/>
      <point x="217" y="33"/>
      <point x="241" y="33" type="curve"/>
      <point x="241" y="-5" type="line"/>
      <point x="174" y="-5"/>
      <point x="40" y="51"/>
    </contour>
    <contour>
      <point x="287" y="-5" type="line"/>
      <point x="287" y="33" type="line"/>
      <point x="307" y="33"/>
      <point x="447" y="66"/>
      <point x="447" y="195" type="curve" smooth="yes"/>
      <point x="447" y="508" type="line" smooth="yes"/>
      <point x="447" y="574"/>
      <point x="389" y="667"/>
      <point x="287" y="667" type="curve"/>
      <point x="287" y="705" type="line"/>
      <point x="422" y="706"/>
      <point x="488" y="583"/>
      <point x="488" y="524" type="curve" smooth="yes"/>
      <point x="488" y="195" type="line" smooth="yes"/>
      <point x="488" y="77"/>
      <point x="398" y="27"/>
      <point x="336" y="2" type="curve"/>
      <point x="394" y="-84" type="line"/>
      <point x="362" y="-107" type="line"/>
    </contour>
  </outline>
</glyph>
<glyph name="U" format="1">
  <advance width="527"/>
  <unicode hex="0055"/>
  <outline>
    <contour>
      <point x="40" y="193" type="curve" smooth="yes"/>
      <point x="40" y="700" type="line"/>
      <point x="80" y="700" type="line"/>
      <point x="80" y="193" type="line"/>
      <point x="80" y="83"/>
      <point x="200" y="33"/>
      <point x="241" y="33" type="curve"/>
      <point x="241" y="-5" type="line"/>
      <point x="181" y="-5"/>
      <point x="40" y="49"/>
    </contour>
    <contour>
      <point x="287" y="-5" type="curve"/>
      <point x="287" y="33" type="line"/>
      <point x="330" y="33"/>
      <point x="447" y="78"/>
      <point x="447" y="193" type="curve"/>
      <point x="447" y="700" type="line"/>
      <point x="487" y="700" type="line"/>
      <point x="487" y="193" type="line" smooth="yes"/>
      <point x="487" y="48"/>
      <point x="348" y="-5"/>
    </contour>
  </outline>
</glyph>
<glyph name="W" format="1">
  <advance width="792"/>
  <unicode hex="0057"/>
  <outline>
    <contour>
      <point x="10" y="700" type="line"/>
      <point x="49" y="700" type="line"/>
      <point x="239" y="44" type="line"/>
      <point x="228" y="0" type="line"/>
      <point x="213" y="0" type="line"/>
    </contour>
    <contour>
      <point x="235" y="182" type="line"/>
      <point x="373" y="700" type="line"/>
      <point x="412" y="700" type="line"/>
      <point x="259" y="130" type="line"/>
      <point x="249" y="130" type="line"/>
    </contour>
    <contour>
      <point x="373" y="700" type="line"/>
      <point x="412" y="700" type="line"/>
      <point x="585" y="38" type="line"/>
      <point x="572" y="0" type="line"/>
      <point x="557" y="0" type="line"/>
    </contour>
    <contour>
      <point x="590" y="181" type="line"/>
      <point x="743" y="700" type="line"/>
      <point x="782" y="700" type="line"/>
      <point x="615" y="130" type="line"/>
      <point x="605" y="130" type="line"/>
    </contour>
  </outline>
</glyph>
<glyph name="bracketright" format="1">
  <advance width="180"/>
  <unicode hex="005D"/>
  <outline>
    <contour>
      <point x="50" y="-36" type="line"/>
      <point x="50" y="2" type="line"/>
      <point x="92" y="2" type="line"/>
      <point x="89" y="701" type="line"/>
      <point x="50" y="701" type="line"/>
      <point x="50" y="739" type="line"/>
      <point x="130" y="739" type="line"/>
      <point x="130" y="-36" type="line"/>
    </contour>
  </outline>
</glyph>
<glyph name="asciicircum" format="1">
  <advance width="426"/>
  <unicode hex="005E"/>
  <outline>
    <contour>
      <point x="50" y="460" type="line"/>
      <point x="199" y="756" type="line"/>
      <point x="227" y="756" type="line"/>
      <point x="376" y="460" type="line"/>
      <point x="335" y="460" type="line"/>
      <point x="212" y="703" type="line"/>
      <point x="91" y="460" type="line"/>
    </contour>
  </outline>
</glyph>
<glyph name="h" format="1">
  <advance width="445"/>
  <unicode hex="0068"/>
  <outline>
    <contour>
      <point x="40" y="1" type="line"/>
      <point x="40" y="698" type="line"/>
      <point x="79" y="698" type="line"/>
      <point x="79" y="454" type="line"/>
      <point x="96" y="478"/>
      <point x="136" y="511"/>
      <point x="203" y="511" type="curve"/>
      <point x="203" y="473" type="line"/>
      <point x="145" y="473"/>
      <point x="80" y="420"/>
      <point x="80" y="365" type="curve" smooth="yes"/>
      <point x="80" y="1" type="line"/>
    </contour>
    <contour>
      <point x="248" y="473" type="curve"/>
      <point x="248" y="511" type="line"/>
      <point x="347" y="511"/>
      <point x="405" y="443"/>
      <point x="405" y="374" type="curve" smooth="yes"/>
      <point x="405" y="1" type="line"/>
      <point x="365" y="1" type="line"/>
      <point x="365" y="365" type="line" smooth="yes"/>
      <point x="365" y="418"/>
      <point x="328" y="473"/>
    </contour>
  </outline>
</glyph>
<glyph name="s" format="1">
  <advance width="415"/>
  <unicode hex="0073"/>
  <outline>
    <contour>
      <point x="20" y="136" type="curve"/>
      <point x="59" y="143" type="line"/>
      <point x="59" y="79"/>
      <point x="130" y="33"/>
      <point x="182" y="33" type="curve"/>
      <point x="182" y="-5" type="line"/>
      <point x="85" y="-5"/>
      <point x="20" y="71"/>
    </contour>
    <contour>
      <point x="24" y="365" type="curve" smooth="yes"/>
      <point x="24" y="472"/>
      <point x="117" y="517"/>
      <point x="180" y="517" type="curve"/>
      <point x="180" y="479" type="line"/>
      <point x="134" y="479"/>
      <point x="64" y="435"/>
      <point x="64" y="365" type="curve" smooth="yes"/>
      <point x="64" y="305"/>
      <point x="144" y="301"/>
      <point x="283" y="266" type="curve" smooth="yes"/>
      <point x="315" y="258"/>
      <point x="395" y="234"/>
      <point x="395" y="153" type="curve" smooth="yes"/>
      <point x="395" y="57"/>
      <point x="318" y="-5"/>
      <point x="223" y="-5" type="curve"/>
      <point x="223" y="32" type="line"/>
      <point x="277" y="32"/>
      <point x="355" y="73"/>
      <point x="355" y="153" type="curve" smooth="yes"/>
      <point x="355" y="223"/>
      <point x="236" y="235"/>
      <point x="123" y="262" type="curve" smooth="yes"/>
      <point x="92" y="269"/>
      <point x="24" y="289"/>
    </contour>
    <contour>
      <point x="222" y="478" type="curve"/>
      <point x="222" y="517" type="line"/>
      <point x="319" y="517"/>
      <point x="386" y="441"/>
      <point x="386" y="374" type="curve"/>
      <point x="347" y="368" type="line"/>
      <point x="347" y="442"/>
      <point x="263" y="478"/>
    </contour>
  </outline>
</glyph>
<glyph name="v" format="1">
  <advance width="404"/>
  <unicode hex="0076"/>
  <outline>
    <contour>
      <point x="10" y="515" type="line"/>
      <point x="55" y="515" type="line"/>
      <point x="221" y="31" type="line"/>
      <point x="208" y="0" type="line"/>
      <point x="188" y="0" type="line"/>
    </contour>
    <contour>
      <point x="215" y="140" type="line"/>
      <point x="349" y="515" type="line"/>
      <point x="394" y="515" type="line"/>
      <point x="243" y="92" type="line"/>
      <point x="231" y="92" type="line"/>
    </contour>
  </outline>
</glyph>
<glyph name="registered" format="1">
  <advance width="384"/>
  <unicode hex="00AE"/>
  <outline>
    <contour>
      <point x="166" y="518" type="curve"/>
      <point x="166" y="537" type="line"/>
      <point x="185" y="537" type="line" smooth="yes"/>
      <point x="217" y="537"/>
      <point x="231" y="551"/>
      <point x="231" y="570" type="curve" smooth="yes"/>
      <point x="231" y="599"/>
      <point x="211" y="608"/>
      <point x="174" y="608" type="curve" smooth="yes"/>
      <point x="166" y="608" type="line"/>
      <point x="166" y="627" type="line"/>
      <point x="199" y="627"/>
      <point x="251" y="627"/>
      <point x="251" y="570" type="curve" smooth="yes"/>
      <point x="251" y="550"/>
      <point x="243" y="535"/>
      <point x="230" y="528" type="curve"/>
      <point x="242" y="523"/>
      <point x="249.91" y="505.076"/>
      <point x="251" y="492" type="curve" smooth="yes"/>
      <point x="256" y="432" type="line"/>
      <point x="236" y="432" type="line"/>
      <point x="232" y="481" type="line" smooth="yes"/>
      <point x="229.142" y="516.012"/>
      <point x="207" y="518"/>
    </contour>
    <contour>
      <point x="184" y="369.196" type="line"/>
      <point x="99.7366" y="373.345"/>
      <point x="33" y="442.683"/>
      <point x="33" y="528" type="curve" smooth="yes"/>
      <point x="33" y="613.317"/>
      <point x="99.7366" y="682.655"/>
      <point x="184" y="686.804" type="curve"/>
      <point x="184" y="662.919" type="line"/>
      <point x="112.944" y="658.797"/>
      <point x="56.8496" y="600.114"/>
      <point x="56.8496" y="528" type="curve" smooth="yes"/>
      <point x="56.8496" y="455.886"/>
      <point x="112.944" y="397.203"/>
      <point x="184" y="393.081" type="curve"/>
    </contour>
    <contour>
      <point x="200" y="369.196" type="curve"/>
      <point x="200" y="393.081" type="line"/>
      <point x="271.056" y="397.203"/>
      <point x="327.15" y="455.886"/>
      <point x="327.15" y="528" type="curve" smooth="yes"/>
      <point x="327.15" y="600.114"/>
      <point x="271.056" y="658.797"/>
      <point x="200" y="662.919" type="curve"/>
      <point x="200" y="686.804" type="line"/>
      <point x="284.263" y="682.655"/>
      <point x="351" y="613.317"/>
      <point x="351" y="528" type="curve" smooth="yes"/>
      <point x="351" y="442.683"/>
      <point x="284.263" y="373.345"/>
    </contour>
    <contour>
      <point x="133" y="432" type="line"/>
      <point x="133" y="627" type="line"/>
      <point x="154" y="627" type="line"/>
      <point x="154" y="432" type="line"/>
    </contour>
  </outline>
</glyph>
<glyph name="onehalf" format="1">
  <advance width="554"/>
  <unicode hex="00BD"/>
  <outline>
    <contour>
      <point x="308.708" y="0" type="line"/>
      <point x="308.708" y="30" type="line"/>
      <point x="510.708" y="30" type="line"/>
      <point x="510.708" y="0" type="line"/>
    </contour>
    <contour>
      <point x="0" y="0" type="line"/>
      <point x="432" y="700" type="line"/>
      <point x="468" y="700" type="line"/>
      <point x="36" y="0" type="line"/>
    </contour>
    <contour>
      <point x="63" y="662" type="line"/>
      <point x="63" y="683.5" type="line"/>
      <point x="83" y="700" type="line"/>
      <point x="113" y="700" type="line"/>
      <point x="113" y="350" type="line"/>
      <point x="83" y="350" type="line"/>
      <point x="83" y="662" type="line"/>
    </contour>
    <contour>
      <point x="299.208" y="261" type="line"/>
      <point x="303.708" y="303"/>
      <point x="334.208" y="346.5"/>
      <point x="387.208" y="351" type="curve"/>
      <point x="387.208" y="321" type="line" smooth="yes"/>
      <point x="387.208" y="321"/>
      <point x="336" y="321"/>
      <point x="328" y="254" type="curve"/>
    </contour>
    <contour>
      <point x="308.708" y="51" type="line"/>
      <point x="308.708" y="139.5"/>
      <point x="412.708" y="165"/>
      <point x="431.208" y="174" type="curve" smooth="yes"/>
      <point x="459.208" y="187.5"/>
      <point x="483.708" y="205"/>
      <point x="483.708" y="248" type="curve" smooth="yes"/>
      <point x="483.708" y="290.5"/>
      <point x="465.708" y="321"/>
      <point x="409.708" y="321" type="curve"/>
      <point x="409.708" y="351" type="line"/>
      <point x="488.708" y="351"/>
      <point x="513.708" y="300.51"/>
      <point x="513.708" y="248" type="curve" smooth="yes"/>
      <point x="513.708" y="198"/>
      <point x="490.208" y="173"/>
      <point x="456.208" y="155.5" type="curve" smooth="yes"/>
      <point x="419.208" y="136.5"/>
      <point x="338.708" y="120.5"/>
      <point x="338.708" y="51" type="curve"/>
    </contour>
  </outline>
</glyph>
<glyph name="ring" format="1">
  <advance width="244"/>
  <unicode hex="02DA"/>
  <outline>
    <contour>
      <point x="55" y="526" type="curve" smooth="yes"/>
      <point x="55" y="563"/>
      <point x="85" y="593"/>
      <point x="122" y="593" type="curve" smooth="yes"/>
      <point x="159" y="593"/>
      <point x="189" y="563"/>
      <point x="189" y="526" type="curve" smooth="yes"/>
      <point x="189" y="489"/>
      <point x="159" y="459"/>
      <point x="122" y="459" type="curve" smooth="yes"/>
      <point x="85" y="459"/>
      <point x="55" y="489"/>
    </contour>
    <contour>
      <point x="90" y="526" type="curve" smooth="yes"/>
      <point x="90" y="508"/>
      <point x="104" y="494"/>
      <point x="122" y="494" type="curve" smooth="yes"/>
      <point x="140" y="494"/>
      <point x="154" y="508"/>
      <point x="154" y="526" type="curve" smooth="yes"/>
      <point x="154" y="544"/>
      <point x="140" y="558"/>
      <point x="122" y="558" type="curve" smooth="yes"/>
      <point x="104" y="558"/>
      <point x="90" y="544"/>
    </contour>
  </outline>
</glyph>
<glyph name="endash" format="1">
  <advance width="532"/>
  <unicode hex="2013"/>
  <outline>
    <contour>
      <point x="26" y="275" type="line"/>
      <point x="26" y="313" type="line"/>
      <point x="506" y="313" type="line"/>
      <point x="506" y="275" type="line"/>
    </contour>
  </outline>
</glyph>
<glyph name="perthousand" format="1">
  <advance width="897"/>
  <unicode hex="2030"/>
  <outline>
    <contour>
      <point x="120" y="352" type="line"/>
      <point x="87" y="353.5"/>
      <point x="19" y="378"/>
      <point x="19" y="528.5" type="curve" smooth="yes"/>
      <point x="19" y="660"/>
      <point x="76" y="698.5"/>
      <point x="120.5" y="701" type="curve"/>
      <point x="120.5" y="672" type="line"/>
      <point x="95" y="672"/>
      <point x="50.5" y="640.5"/>
      <point x="49.5" y="551" type="curve" smooth="yes"/>
      <point x="49.3491" y="537.492"/>
      <point x="49.5" y="532"/>
      <point x="49.5" y="521.5" type="curve" smooth="yes"/>
      <point x="49.5" y="400.5"/>
      <point x="99.5" y="381.5"/>
      <point x="120" y="381" type="curve"/>
    </contour>
    <contour>
      <point x="151" y="352" type="curve"/>
      <point x="151" y="381" type="line"/>
      <point x="171.5" y="381.5"/>
      <point x="221.5" y="400.5"/>
      <point x="221.5" y="521.5" type="curve" smooth="yes"/>
      <point x="221.5" y="532"/>
      <point x="221.651" y="537.491"/>
      <point x="221.5" y="551" type="curve" smooth="yes"/>
      <point x="220.5" y="640.5"/>
      <point x="176" y="672"/>
      <point x="150.5" y="672" type="curve"/>
      <point x="150.5" y="701" type="line"/>
      <point x="195" y="698.5"/>
      <point x="252" y="660"/>
      <point x="252" y="528.5" type="curve" smooth="yes"/>
      <point x="252" y="378"/>
      <point x="184" y="353.5"/>
    </contour>
    <contour>
      <point x="487" y="0" type="line"/>
      <point x="454" y="1.5"/>
      <point x="386" y="26"/>
      <point x="386" y="176.5" type="curve" smooth="yes"/>
      <point x="386" y="308"/>
      <point x="443" y="346.5"/>
      <point x="487.5" y="349" type="curve"/>
      <point x="487.5" y="320" type="line"/>
      <point x="462" y="320"/>
      <point x="417.5" y="288.5"/>
      <point x="416.5" y="199" type="curve" smooth="yes"/>
      <point x="416.349" y="185.491"/>
      <point x="416.5" y="180"/>
      <point x="416.5" y="169.5" type="curve" smooth="yes"/>
      <point x="416.5" y="48.5"/>
      <point x="466.5" y="29.5"/>
      <point x="487" y="29" type="curve"/>
    </contour>
    <contour>
      <point x="518" y="0" type="curve"/>
      <point x="518" y="29" type="line"/>
      <point x="538.5" y="29.5"/>
      <point x="588.5" y="48.5"/>
      <point x="588.5" y="169.5" type="curve" smooth="yes"/>
      <point x="588.5" y="180"/>
      <point x="588.651" y="185.491"/>
      <point x="588.5" y="199" type="curve" smooth="yes"/>
      <point x="587.5" y="288.5"/>
      <point x="543" y="320"/>
      <point x="517.5" y="320" type="curve"/>
      <point x="517.5" y="349" type="line"/>
      <point x="562" y="346.5"/>
      <point x="619" y="308"/>
      <point x="619" y="176.5" type="curve" smooth="yes"/>
      <point x="619" y="26"/>
      <point x="551" y="1.5"/>
    </contour>
    <contour>
      <point x="746" y="0" type="line"/>
      <point x="713" y="1.5"/>
      <point x="645" y="26"/>
      <point x="645" y="176.5" type="curve" smooth="yes"/>
      <point x="645" y="308"/>
      <point x="702" y="346.5"/>
      <point x="746.5" y="349" type="curve"/>
      <point x="746.5" y="320" type="line"/>
      <point x="721" y="320"/>
      <point x="676.5" y="288.5"/>
      <point x="675.5" y="199" type="curve" smooth="yes"/>
      <point x="675.349" y="185.491"/>
      <point x="675.5" y="180"/>
      <point x="675.5" y="169.5" type="curve" smooth="yes"/>
      <point x="675.5" y="48.5"/>
      <point x="725.5" y="29.5"/>
      <point x="746" y="29" type="curve"/>
    </contour>
    <contour>
      <point x="777" y="0" type="curve"/>
      <point x="777" y="29" type="line"/>
      <point x="797.5" y="29.5"/>
      <point x="847.5" y="48.5"/>
      <point x="847.5" y="169.5" type="curve" smooth="yes"/>
      <point x="847.5" y="180"/>
      <point x="847.651" y="185.491"/>
      <point x="847.5" y="199" type="curve" smooth="yes"/>
      <point x="846.5" y="288.5"/>
      <point x="802" y="320"/>
      <point x="776.5" y="320" type="curve"/>
      <point x="776.5" y="349" type="line"/>
      <point x="821" y="346.5"/>
      <point x="878" y="308"/>
      <point x="878" y="176.5" type="curve" smooth="yes"/>
      <point x="878" y="26"/>
      <point x="810" y="1.5"/>
    </contour>
    <contour>
      <point x="89" y="0" type="line"/>
      <point x="521" y="700" type="line"/>
      <point x="557" y="700" type="line"/>
      <point x="125" y="0" type="line"/>
    </contour>
  </outline>
</glyph>
<glyph name="uni2113" format="1">
  <advance width="184"/>
  <unicode hex="2113"/>
  <outline>
    <contour>
      <point x="71" y="170" type="curve" smooth="yes"/>
      <point x="71" y="700" type="line"/>
      <point x="111" y="700" type="line"/>
      <point x="111" y="170" type="line"/>
      <point x="111" y="41"/>
      <point x="184" y="33"/>
      <point x="212" y="33" type="curve"/>
      <point x="212" y="-5" type="line"/>
      <point x="152" y="-5"/>
      <point x="71" y="26"/>
    </contour>
  </outline>
</glyph>
<glyph name="estimated" format="1">
  <advance width="531"/>
  <unicode hex="212E"/>
  <outline>
    <contour>
      <point x="214" y="1" type="line"/>
      <point x="94" y="1"/>
      <point x="30" y="102"/>
      <point x="30" y="211" type="curve" smooth="yes"/>
      <point x="30" y="496" type="line"/>
      <point x="30" y="594"/>
      <point x="94" y="705"/>
      <point x="214" y="705" type="curve"/>
      <point x="214" y="667" type="line"/>
      <point x="134" y="667"/>
      <point x="70" y="598"/>
      <point x="70" y="488" type="curve" smooth="yes"/>
      <point x="70" y="335" type="line"/>
      <point x="412" y="335" type="line"/>
      <point x="412" y="488" type="line" smooth="yes"/>
      <point x="412" y="598"/>
      <point x="349" y="667"/>
      <point x="269" y="667" type="curve"/>
      <point x="269" y="705" type="line"/>
      <point x="389" y="705"/>
      <point x="452" y="594"/>
      <point x="452" y="497" type="curve" smooth="yes"/>
      <point x="452" y="297" type="line"/>
      <point x="70" y="297" type="line"/>
      <point x="70" y="219" type="line" smooth="yes"/>
      <point x="70" y="98"/>
      <point x="134" y="39"/>
      <point x="214" y="39" type="curve"/>
    </contour>
    <contour>
      <point x="270" y="0" type="curve"/>
      <point x="270" y="41" type="line"/>
      <point x="341" y="41"/>
      <point x="405" y="92"/>
      <point x="414" y="134" type="curve"/>
      <point x="453" y="120" type="line"/>
      <point x="434" y="56"/>
      <point x="358" y="0"/>
    </contour>
  </outline>
</glyph>
